<mxfile host="app.diagrams.net" modified="2021-08-25T02:25:37.348Z" agent="5.0 (Macintosh; Intel Mac OS X 10_15_7) AppleWebKit/537.36 (KHTML, like Gecko) Chrome/86.0.4240.193 Safari/537.36" etag="ol692r8JFaimDuq7UYwX" version="14.9.8" type="github">
  <diagram id="tNHiWF3lkFuYVXQpnxNy" name="Page-1">
    <mxGraphModel dx="946" dy="536" grid="1" gridSize="10" guides="1" tooltips="1" connect="1" arrows="1" fold="1" page="1" pageScale="1" pageWidth="827" pageHeight="1169" math="0" shadow="0">
      <root>
        <mxCell id="0" />
        <mxCell id="1" parent="0" />
        <mxCell id="YQN44azGTapmBsaF2gXF-7" style="rounded=0;orthogonalLoop=1;jettySize=auto;html=1;exitX=0;exitY=1;exitDx=0;exitDy=0;entryX=0.7;entryY=0.05;entryDx=0;entryDy=0;entryPerimeter=0;fillColor=#dae8fc;strokeColor=#6c8ebf;" edge="1" parent="1" source="YQN44azGTapmBsaF2gXF-1" target="YQN44azGTapmBsaF2gXF-2">
          <mxGeometry relative="1" as="geometry" />
        </mxCell>
        <mxCell id="YQN44azGTapmBsaF2gXF-12" style="edgeStyle=none;rounded=0;orthogonalLoop=1;jettySize=auto;html=1;exitX=1;exitY=1;exitDx=0;exitDy=0;fillColor=#dae8fc;strokeColor=#6c8ebf;" edge="1" parent="1" source="YQN44azGTapmBsaF2gXF-1" target="YQN44azGTapmBsaF2gXF-3">
          <mxGeometry relative="1" as="geometry" />
        </mxCell>
        <mxCell id="YQN44azGTapmBsaF2gXF-1" value="4" style="ellipse;whiteSpace=wrap;html=1;aspect=fixed;fillColor=#dae8fc;strokeColor=#6c8ebf;" vertex="1" parent="1">
          <mxGeometry x="220" y="110" width="40" height="40" as="geometry" />
        </mxCell>
        <mxCell id="YQN44azGTapmBsaF2gXF-8" style="edgeStyle=none;rounded=0;orthogonalLoop=1;jettySize=auto;html=1;exitX=0;exitY=1;exitDx=0;exitDy=0;entryX=0.5;entryY=0;entryDx=0;entryDy=0;fillColor=#dae8fc;strokeColor=#6c8ebf;" edge="1" parent="1" source="YQN44azGTapmBsaF2gXF-2" target="YQN44azGTapmBsaF2gXF-4">
          <mxGeometry relative="1" as="geometry" />
        </mxCell>
        <mxCell id="YQN44azGTapmBsaF2gXF-9" style="edgeStyle=none;rounded=0;orthogonalLoop=1;jettySize=auto;html=1;exitX=1;exitY=1;exitDx=0;exitDy=0;entryX=0.5;entryY=0;entryDx=0;entryDy=0;fillColor=#dae8fc;strokeColor=#6c8ebf;" edge="1" parent="1" source="YQN44azGTapmBsaF2gXF-2" target="YQN44azGTapmBsaF2gXF-5">
          <mxGeometry relative="1" as="geometry" />
        </mxCell>
        <mxCell id="YQN44azGTapmBsaF2gXF-2" value="10" style="ellipse;whiteSpace=wrap;html=1;aspect=fixed;fillColor=#dae8fc;strokeColor=#6c8ebf;" vertex="1" parent="1">
          <mxGeometry x="160" y="190" width="40" height="40" as="geometry" />
        </mxCell>
        <mxCell id="YQN44azGTapmBsaF2gXF-10" style="edgeStyle=none;rounded=0;orthogonalLoop=1;jettySize=auto;html=1;exitX=0;exitY=1;exitDx=0;exitDy=0;entryX=0.5;entryY=0;entryDx=0;entryDy=0;fillColor=#dae8fc;strokeColor=#6c8ebf;" edge="1" parent="1" source="YQN44azGTapmBsaF2gXF-3" target="YQN44azGTapmBsaF2gXF-6">
          <mxGeometry relative="1" as="geometry" />
        </mxCell>
        <mxCell id="YQN44azGTapmBsaF2gXF-3" value="3" style="ellipse;whiteSpace=wrap;html=1;aspect=fixed;fillColor=#dae8fc;strokeColor=#6c8ebf;" vertex="1" parent="1">
          <mxGeometry x="270" y="190" width="40" height="40" as="geometry" />
        </mxCell>
        <mxCell id="YQN44azGTapmBsaF2gXF-4" value="5" style="ellipse;whiteSpace=wrap;html=1;aspect=fixed;fillColor=#dae8fc;strokeColor=#6c8ebf;" vertex="1" parent="1">
          <mxGeometry x="120" y="270" width="40" height="40" as="geometry" />
        </mxCell>
        <mxCell id="YQN44azGTapmBsaF2gXF-5" value="1" style="ellipse;whiteSpace=wrap;html=1;aspect=fixed;fillColor=#dae8fc;strokeColor=#6c8ebf;" vertex="1" parent="1">
          <mxGeometry x="190" y="270" width="40" height="40" as="geometry" />
        </mxCell>
        <mxCell id="YQN44azGTapmBsaF2gXF-6" value="2" style="ellipse;whiteSpace=wrap;html=1;aspect=fixed;fillColor=#dae8fc;strokeColor=#6c8ebf;" vertex="1" parent="1">
          <mxGeometry x="240" y="270" width="40" height="40" as="geometry" />
        </mxCell>
        <mxCell id="YQN44azGTapmBsaF2gXF-13" style="rounded=0;orthogonalLoop=1;jettySize=auto;html=1;exitX=0;exitY=1;exitDx=0;exitDy=0;entryX=0.7;entryY=0.05;entryDx=0;entryDy=0;entryPerimeter=0;fillColor=#dae8fc;strokeColor=#6c8ebf;" edge="1" parent="1" source="YQN44azGTapmBsaF2gXF-15" target="YQN44azGTapmBsaF2gXF-18">
          <mxGeometry relative="1" as="geometry" />
        </mxCell>
        <mxCell id="YQN44azGTapmBsaF2gXF-14" style="edgeStyle=none;rounded=0;orthogonalLoop=1;jettySize=auto;html=1;exitX=1;exitY=1;exitDx=0;exitDy=0;fillColor=#dae8fc;strokeColor=#6c8ebf;" edge="1" parent="1" source="YQN44azGTapmBsaF2gXF-15" target="YQN44azGTapmBsaF2gXF-20">
          <mxGeometry relative="1" as="geometry" />
        </mxCell>
        <mxCell id="YQN44azGTapmBsaF2gXF-15" value="10" style="ellipse;whiteSpace=wrap;html=1;aspect=fixed;fillColor=#ffe6cc;strokeColor=#d79b00;" vertex="1" parent="1">
          <mxGeometry x="450" y="120" width="40" height="40" as="geometry" />
        </mxCell>
        <mxCell id="YQN44azGTapmBsaF2gXF-16" style="edgeStyle=none;rounded=0;orthogonalLoop=1;jettySize=auto;html=1;exitX=0;exitY=1;exitDx=0;exitDy=0;entryX=0.5;entryY=0;entryDx=0;entryDy=0;fillColor=#dae8fc;strokeColor=#6c8ebf;" edge="1" parent="1" source="YQN44azGTapmBsaF2gXF-18" target="YQN44azGTapmBsaF2gXF-21">
          <mxGeometry relative="1" as="geometry" />
        </mxCell>
        <mxCell id="YQN44azGTapmBsaF2gXF-17" style="edgeStyle=none;rounded=0;orthogonalLoop=1;jettySize=auto;html=1;exitX=1;exitY=1;exitDx=0;exitDy=0;entryX=0.5;entryY=0;entryDx=0;entryDy=0;fillColor=#dae8fc;strokeColor=#6c8ebf;" edge="1" parent="1" source="YQN44azGTapmBsaF2gXF-18" target="YQN44azGTapmBsaF2gXF-22">
          <mxGeometry relative="1" as="geometry" />
        </mxCell>
        <mxCell id="YQN44azGTapmBsaF2gXF-18" value="4" style="ellipse;whiteSpace=wrap;html=1;aspect=fixed;fillColor=#ffe6cc;strokeColor=#d79b00;" vertex="1" parent="1">
          <mxGeometry x="390" y="200" width="40" height="40" as="geometry" />
        </mxCell>
        <mxCell id="YQN44azGTapmBsaF2gXF-19" style="edgeStyle=none;rounded=0;orthogonalLoop=1;jettySize=auto;html=1;exitX=0;exitY=1;exitDx=0;exitDy=0;entryX=0.5;entryY=0;entryDx=0;entryDy=0;fillColor=#dae8fc;strokeColor=#6c8ebf;" edge="1" parent="1" source="YQN44azGTapmBsaF2gXF-20" target="YQN44azGTapmBsaF2gXF-23">
          <mxGeometry relative="1" as="geometry" />
        </mxCell>
        <mxCell id="YQN44azGTapmBsaF2gXF-20" value="3" style="ellipse;whiteSpace=wrap;html=1;aspect=fixed;fillColor=#dae8fc;strokeColor=#6c8ebf;" vertex="1" parent="1">
          <mxGeometry x="500" y="200" width="40" height="40" as="geometry" />
        </mxCell>
        <mxCell id="YQN44azGTapmBsaF2gXF-21" value="5" style="ellipse;whiteSpace=wrap;html=1;aspect=fixed;fillColor=#dae8fc;strokeColor=#6c8ebf;" vertex="1" parent="1">
          <mxGeometry x="350" y="280" width="40" height="40" as="geometry" />
        </mxCell>
        <mxCell id="YQN44azGTapmBsaF2gXF-22" value="1" style="ellipse;whiteSpace=wrap;html=1;aspect=fixed;fillColor=#dae8fc;strokeColor=#6c8ebf;" vertex="1" parent="1">
          <mxGeometry x="420" y="280" width="40" height="40" as="geometry" />
        </mxCell>
        <mxCell id="YQN44azGTapmBsaF2gXF-23" value="2" style="ellipse;whiteSpace=wrap;html=1;aspect=fixed;fillColor=#dae8fc;strokeColor=#6c8ebf;" vertex="1" parent="1">
          <mxGeometry x="470" y="280" width="40" height="40" as="geometry" />
        </mxCell>
        <mxCell id="YQN44azGTapmBsaF2gXF-24" style="rounded=0;orthogonalLoop=1;jettySize=auto;html=1;exitX=0;exitY=1;exitDx=0;exitDy=0;entryX=0.7;entryY=0.05;entryDx=0;entryDy=0;entryPerimeter=0;fillColor=#dae8fc;strokeColor=#6c8ebf;" edge="1" parent="1" source="YQN44azGTapmBsaF2gXF-26" target="YQN44azGTapmBsaF2gXF-29">
          <mxGeometry relative="1" as="geometry" />
        </mxCell>
        <mxCell id="YQN44azGTapmBsaF2gXF-25" style="edgeStyle=none;rounded=0;orthogonalLoop=1;jettySize=auto;html=1;exitX=1;exitY=1;exitDx=0;exitDy=0;fillColor=#dae8fc;strokeColor=#6c8ebf;" edge="1" parent="1" source="YQN44azGTapmBsaF2gXF-26" target="YQN44azGTapmBsaF2gXF-31">
          <mxGeometry relative="1" as="geometry" />
        </mxCell>
        <mxCell id="YQN44azGTapmBsaF2gXF-26" value="10" style="ellipse;whiteSpace=wrap;html=1;aspect=fixed;fillColor=#dae8fc;strokeColor=#6c8ebf;" vertex="1" parent="1">
          <mxGeometry x="680" y="120" width="40" height="40" as="geometry" />
        </mxCell>
        <mxCell id="YQN44azGTapmBsaF2gXF-27" style="edgeStyle=none;rounded=0;orthogonalLoop=1;jettySize=auto;html=1;exitX=0;exitY=1;exitDx=0;exitDy=0;entryX=0.5;entryY=0;entryDx=0;entryDy=0;fillColor=#dae8fc;strokeColor=#6c8ebf;" edge="1" parent="1" source="YQN44azGTapmBsaF2gXF-29" target="YQN44azGTapmBsaF2gXF-32">
          <mxGeometry relative="1" as="geometry" />
        </mxCell>
        <mxCell id="YQN44azGTapmBsaF2gXF-28" style="edgeStyle=none;rounded=0;orthogonalLoop=1;jettySize=auto;html=1;exitX=1;exitY=1;exitDx=0;exitDy=0;entryX=0.5;entryY=0;entryDx=0;entryDy=0;fillColor=#dae8fc;strokeColor=#6c8ebf;" edge="1" parent="1" source="YQN44azGTapmBsaF2gXF-29" target="YQN44azGTapmBsaF2gXF-33">
          <mxGeometry relative="1" as="geometry" />
        </mxCell>
        <mxCell id="YQN44azGTapmBsaF2gXF-29" value="5" style="ellipse;whiteSpace=wrap;html=1;aspect=fixed;fillColor=#ffe6cc;strokeColor=#d79b00;" vertex="1" parent="1">
          <mxGeometry x="620" y="200" width="40" height="40" as="geometry" />
        </mxCell>
        <mxCell id="YQN44azGTapmBsaF2gXF-30" style="edgeStyle=none;rounded=0;orthogonalLoop=1;jettySize=auto;html=1;exitX=0;exitY=1;exitDx=0;exitDy=0;entryX=0.5;entryY=0;entryDx=0;entryDy=0;fillColor=#dae8fc;strokeColor=#6c8ebf;" edge="1" parent="1" source="YQN44azGTapmBsaF2gXF-31" target="YQN44azGTapmBsaF2gXF-34">
          <mxGeometry relative="1" as="geometry" />
        </mxCell>
        <mxCell id="YQN44azGTapmBsaF2gXF-31" value="3" style="ellipse;whiteSpace=wrap;html=1;aspect=fixed;fillColor=#dae8fc;strokeColor=#6c8ebf;" vertex="1" parent="1">
          <mxGeometry x="730" y="200" width="40" height="40" as="geometry" />
        </mxCell>
        <mxCell id="YQN44azGTapmBsaF2gXF-32" value="4" style="ellipse;whiteSpace=wrap;html=1;aspect=fixed;fillColor=#ffe6cc;strokeColor=#d79b00;" vertex="1" parent="1">
          <mxGeometry x="580" y="280" width="40" height="40" as="geometry" />
        </mxCell>
        <mxCell id="YQN44azGTapmBsaF2gXF-33" value="1" style="ellipse;whiteSpace=wrap;html=1;aspect=fixed;fillColor=#dae8fc;strokeColor=#6c8ebf;" vertex="1" parent="1">
          <mxGeometry x="650" y="280" width="40" height="40" as="geometry" />
        </mxCell>
        <mxCell id="YQN44azGTapmBsaF2gXF-34" value="2" style="ellipse;whiteSpace=wrap;html=1;aspect=fixed;fillColor=#dae8fc;strokeColor=#6c8ebf;" vertex="1" parent="1">
          <mxGeometry x="700" y="280" width="40" height="40" as="geometry" />
        </mxCell>
      </root>
    </mxGraphModel>
  </diagram>
</mxfile>
